<?xml version="1.0" encoding="UTF-8" standalone="no"?>
<!DOCTYPE svg PUBLIC "-//W3C//DTD SVG 1.1//EN"
 "http://www.w3.org/Graphics/SVG/1.1/DTD/svg11.dtd">
<!-- Generated by graphviz version 15.0.0 (20260523.1842)
 -->
<!-- Title: G Pages: 1 -->
<svg width="732pt" height="152pt"
 viewBox="0.00 0.00 732.00 152.00" xmlns="http://www.w3.org/2000/svg" xmlns:xlink="http://www.w3.org/1999/xlink">
<g id="graph0" class="graph" transform="scale(1 1) rotate(0) translate(4 148)">
<title>G</title>
<polygon fill="white" stroke="none" points="-4,4 -4,-148 727.75,-148 727.75,4 -4,4"/>
<!-- data.google_project.current -->
<g id="node1" class="node">
<title>data.google_project.current</title>
<polygon fill="none" stroke="black" points="697.5,-36 517.25,-36 517.25,0 697.5,0 697.5,-36"/>
<text xml:space="preserve" text-anchor="middle" x="607.38" y="-12.2" font-family="sans-serif" font-size="14.00">data.google_project.current</text>
</g>
<!-- google_compute_network.nexus -->
<g id="node2" class="node">
<title>google_compute_network.nexus</title>
<polygon fill="none" stroke="black" points="455,-90 244,-90 244,-54 455,-54 455,-90"/>
<text xml:space="preserve" text-anchor="middle" x="349.5" y="-66.2" font-family="sans-serif" font-size="14.00">google_compute_network.nexus</text>
</g>
<!-- google_project_service.required -->
<g id="node4" class="node">
<title>google_project_service.required</title>
<polygon fill="none" stroke="black" points="208,-117 0,-117 0,-81 208,-81 208,-117"/>
<text xml:space="preserve" text-anchor="middle" x="104" y="-93.2" font-family="sans-serif" font-size="14.00">google_project_service.required</text>
</g>
<!-- google_compute_network.nexus&#45;&gt;google_project_service.required -->
<g id="edge1" class="edge">
<title>google_compute_network.nexus&#45;&gt;google_project_service.required</title>
<path fill="none" stroke="black" d="M243.82,-83.61C235.85,-84.49 227.78,-85.39 219.74,-86.28"/>
<polygon fill="black" stroke="black" points="219.49,-82.78 209.94,-87.36 220.26,-89.74 219.49,-82.78"/>
</g>
<!-- google_compute_subnetwork.nexus -->
<g id="node3" class="node">
<title>google_compute_subnetwork.nexus</title>
<polygon fill="none" stroke="black" points="723.75,-90 491,-90 491,-54 723.75,-54 723.75,-90"/>
<text xml:space="preserve" text-anchor="middle" x="607.38" y="-66.2" font-family="sans-serif" font-size="14.00">google_compute_subnetwork.nexus</text>
</g>
<!-- google_compute_subnetwork.nexus&#45;&gt;google_compute_network.nexus -->
<g id="edge2" class="edge">
<title>google_compute_subnetwork.nexus&#45;&gt;google_compute_network.nexus</title>
<path fill="none" stroke="black" d="M490.79,-72C482.78,-72 474.7,-72 466.69,-72"/>
<polygon fill="black" stroke="black" points="466.92,-68.5 456.92,-72 466.92,-75.5 466.92,-68.5"/>
</g>
<!-- google_storage_bucket.nexus -->
<g id="node5" class="node">
<title>google_storage_bucket.nexus</title>
<polygon fill="none" stroke="black" points="447.5,-144 251.5,-144 251.5,-108 447.5,-108 447.5,-144"/>
<text xml:space="preserve" text-anchor="middle" x="349.5" y="-120.2" font-family="sans-serif" font-size="14.00">google_storage_bucket.nexus</text>
</g>
<!-- google_storage_bucket.nexus&#45;&gt;google_project_service.required -->
<g id="edge3" class="edge">
<title>google_storage_bucket.nexus&#45;&gt;google_project_service.required</title>
<path fill="none" stroke="black" d="M251.21,-115.21C240.8,-114.06 230.15,-112.88 219.56,-111.7"/>
<polygon fill="black" stroke="black" points="219.95,-108.22 209.62,-110.6 219.18,-115.18 219.95,-108.22"/>
</g>
</g>
</svg>
